Coordinates
version=1
nRows=30
nColumns=38
inDegrees=no

Units are S.I. units (second, meters, Newtons, ...)
If the header above contains a line with 'inDegrees', this indicates whether rotational values are in degrees (yes) or radians (no).

endheader
time	pelvis_tilt	pelvis_list	pelvis_rotation	pelvis_tx	pelvis_ty	pelvis_tz	hip_flexion_r	hip_adduction_r	hip_rotation_r	knee_angle_r	ankle_angle_r	subtalar_angle_r	mtp_angle_r	hip_flexion_l	hip_adduction_l	hip_rotation_l	knee_angle_l	ankle_angle_l	subtalar_angle_l	mtp_angle_l	lumbar_extension	lumbar_bending	lumbar_rotation	arm_flex_r	arm_add_r	arm_rot_r	elbow_flex_r	pro_sup_r	wrist_flex_r	wrist_dev_r	arm_flex_l	arm_add_l	arm_rot_l	elbow_flex_l	pro_sup_l	wrist_flex_l	wrist_dev_l
25	1.70637	1.49267	-0.0416527	0.624441	-0.116821	0.906419	0.36079	0.00590999	-0.134285	0.729149	-0.28384	0	0	0.397096	-0.237317	-0.343725	0.875644	-0.268082	0	0	-0.356764	0.15848	-0.226877	0.476874	-0.172191	0.513819	0.144895	1.49227	0	0	0.163828	-0.449683	0.684371	0.584882	0.712547	0	0
25.01	1.70664	1.49375	-0.0405	0.624144	-0.115116	0.909057	0.348932	0.00543369	-0.13627	0.711234	-0.287376	0	0	0.385297	-0.235445	-0.349235	0.858818	-0.269381	0	0	-0.347321	0.156507	-0.228641	0.473541	-0.172351	0.511454	0.142488	1.49546	0	0	0.162081	-0.449435	0.689467	0.584209	0.710916	0	0
25.02	1.40261	1.51728	0.283134	0.622879	-0.115798	0.91385	0.355747	-0.026219	-0.143342	0.690419	-0.297232	0	0	0.306117	-0.0742147	-0.0368391	0.615113	-0.224437	0	0	-0.340463	0.130276	-0.234496	0.457771	-0.24264	0.915648	0.246459	1.01678	0	0	0.172835	-0.441278	0.649952	0.579306	0.775816	0	0
25.03	1.3964	1.51897	0.292958	0.622238	-0.113816	0.916386	0.342432	-0.0285764	-0.149209	0.671874	-0.302771	0	0	0.290909	-0.0705956	-0.0339325	0.589686	-0.229729	0	0	-0.331092	0.127949	-0.237207	0.453074	-0.245067	0.921537	0.247133	1.00873	0	0	0.172035	-0.440622	0.658362	0.577928	0.771048	0	0
25.04	1.42149	1.52111	0.269943	0.621811	-0.111969	0.918992	0.327269	-0.0300264	-0.154004	0.652213	-0.308601	0	0	0.273185	-0.0675985	-0.0323195	0.562448	-0.238809	0	0	-0.323742	0.125187	-0.23892	0.449528	-0.246481	0.928594	0.246535	1.00214	0	0	0.171441	-0.440637	0.666893	0.576922	0.766427	0	0
25.05	1.70226	1.52428	-0.00944865	0.621488	-0.1107	0.922308	0.298686	-0.0305601	-0.159158	0.629249	-0.323822	0	0	0.241614	-0.0652066	-0.0315888	0.531778	-0.257172	0	0	-0.323072	0.124516	-0.244614	0.452303	-0.177435	0.466084	0.149516	1.52699	0	0	0.184634	-0.451011	0.745078	0.57075	0.689138	0	0
25.06	1.76087	1.52616	-0.0670503	0.621177	-0.108932	0.924869	0.282186	-0.0314975	-0.163393	0.607458	-0.331046	0	0	0.222184	-0.0620643	-0.0308495	0.502678	-0.269164	0	0	-0.316592	0.121579	-0.246266	0.450846	-0.176342	0.461674	0.144225	1.53394	0	0	0.18442	-0.451068	0.754897	0.569046	0.682939	0	0
25.07	1.83081	1.52809	-0.136261	0.620904	-0.107145	0.927402	0.265227	-0.0327276	-0.168172	0.585392	-0.338669	0	0	0.201651	-0.0584302	-0.0292914	0.471916	-0.282063	0	0	-0.310462	0.118397	-0.247502	0.449371	-0.175449	0.458486	0.139086	1.53973	0	0	0.18448	-0.450765	0.76473	0.566704	0.677101	0	0
25.08	1.87634	1.52995	-0.181619	0.620676	-0.10538	0.92975	0.250158	-0.0337729	-0.173173	0.564196	-0.345468	0	0	0.182685	-0.0550249	-0.0286667	0.441761	-0.293564	0	0	-0.303314	0.115235	-0.248374	0.447706	-0.174927	0.456999	0.134725	1.54399	0	0	0.184069	-0.450086	0.772873	0.564099	0.67229	0	0
25.09	1.93762	1.53121	-0.242627	0.620473	-0.103681	0.932041	0.234239	-0.0339914	-0.177408	0.541909	-0.353027	0	0	0.162523	-0.0515955	-0.0260837	0.410007	-0.306365	0	0	-0.296942	0.112529	-0.249001	0.446081	-0.174589	0.456923	0.130632	1.54774	0	0	0.184153	-0.449489	0.781499	0.561496	0.667155	0	0
25.1	2.00341	1.53184	-0.307771	0.620247	-0.102004	0.934231	0.21788	-0.0334584	-0.180627	0.519169	-0.360343	0	0	0.141959	-0.0484423	-0.0223122	0.377678	-0.319355	0	0	-0.290944	0.110455	-0.249848	0.444315	-0.174557	0.457978	0.12727	1.55033	0	0	0.184098	-0.448562	0.789202	0.558957	0.662349	0	0
25.11	2.06673	1.53222	-0.370292	0.620024	-0.100323	0.93628	0.2015	-0.0324961	-0.182716	0.49596	-0.367133	0	0	0.121342	-0.04537	-0.0176134	0.344845	-0.332401	0	0	-0.284934	0.108542	-0.250835	0.442154	-0.174813	0.459669	0.124773	1.55165	0	0	0.183681	-0.447258	0.795568	0.55629	0.65789	0	0
25.12	2.11659	1.53249	-0.419285	0.619821	-0.0986338	0.938108	0.185624	-0.031017	-0.183688	0.472564	-0.373054	0	0	0.101892	-0.0426586	-0.0128665	0.313316	-0.344505	0	0	-0.278488	0.106856	-0.251871	0.439612	-0.175389	0.461741	0.123106	1.55187	0	0	0.182925	-0.445888	0.801377	0.553489	0.654386	0	0
25.13	2.18536	1.53189	-0.487153	0.619651	-0.0969818	0.939842	0.168491	-0.0289416	-0.183938	0.44871	-0.380114	0	0	0.0811192	-0.0403066	-0.00643319	0.280855	-0.358102	0	0	-0.273309	0.105506	-0.252918	0.437061	-0.176123	0.465184	0.122065	1.55124	0	0	0.182235	-0.4448	0.807675	0.551037	0.649791	0	0
25.14	2.25614	1.53066	-0.557903	0.619543	-0.0954059	0.941374	0.151296	-0.0263851	-0.18243	0.424919	-0.387258	0	0	0.0604659	-0.0384831	-3.7431e-05	0.249566	-0.370973	0	0	-0.268776	0.104329	-0.253484	0.434896	-0.176815	0.470083	0.121027	1.55021	0	0	0.181156	-0.443973	0.813651	0.54914	0.645354	0	0
25.15	2.31855	1.52946	-0.620585	0.619521	-0.0938743	0.942651	0.134812	-0.0238847	-0.180221	0.401464	-0.393993	0	0	0.0411113	-0.0369311	0.00657681	0.22037	-0.383326	0	0	-0.2641	0.10286	-0.254036	0.432721	-0.177421	0.47595	0.120226	1.54815	0	0	0.17977	-0.443603	0.819569	0.547821	0.640372	0	0
25.16	2.3862	1.52785	-0.688485	0.619548	-0.0924473	0.943752	0.11832	-0.0214009	-0.178115	0.378747	-0.400003	0	0	0.0222056	-0.0356669	0.0141327	0.192801	-0.395226	0	0	-0.260204	0.101382	-0.254881	0.431041	-0.177781	0.482834	0.11936	1.54493	0	0	0.17852	-0.443765	0.826025	0.546721	0.634846	0	0
25.17	2.44074	1.5265	-0.743241	0.619616	-0.0910883	0.944556	0.104309	-0.0196264	-0.177767	0.360213	-0.403659	0	0	0.00616312	-0.0348878	0.020227	0.169984	-0.403669	0	0	-0.255849	0.0998012	-0.256239	0.429609	-0.177608	0.489775	0.11817	1.54209	0	0	0.176707	-0.4441	0.831174	0.545768	0.630031	0	0
25.18	2.50328	1.52534	-0.805942	0.619681	-0.0898389	0.945087	0.0925918	-0.0198041	-0.178443	0.346324	-0.406614	0	0	-0.00815148	-0.0338375	0.0257907	0.150799	-0.410618	0	0	-0.251805	0.0976162	-0.258066	0.428618	-0.177078	0.497286	0.11678	1.53812	0	0	0.174745	-0.445035	0.83638	0.54542	0.625122	0	0
25.19	2.54757	1.52368	-0.851104	0.619796	-0.0887997	0.94554	0.081539	-0.0183974	-0.175406	0.331671	-0.409198	0	0	-0.0202823	-0.0338324	0.0306918	0.135271	-0.416197	0	0	-0.248816	0.0960635	-0.258669	0.42792	-0.176932	0.505534	0.116009	1.53344	0	0	0.173731	-0.4457	0.841886	0.544864	0.62041	0	0
25.2	2.60284	1.52191	-0.907234	0.619933	-0.0878706	0.945843	0.0722608	-0.0182014	-0.173662	0.32189	-0.410232	0	0	-0.0309669	-0.0333838	0.0344117	0.123319	-0.420059	0	0	-0.246676	0.0939336	-0.259494	0.427687	-0.176387	0.514486	0.114848	1.5275	0	0	0.172619	-0.44654	0.846631	0.544662	0.614805	0	0
25.21	2.66474	1.51946	-0.970105	0.620089	-0.0870756	0.946113	0.0638499	-0.0185221	-0.172426	0.31525	-0.410397	0	0	-0.0406733	-0.0327999	0.0368261	0.114655	-0.422618	0	0	-0.246084	0.0917638	-0.260208	0.428065	-0.175646	0.523316	0.113588	1.51934	0	0	0.171879	-0.447364	0.851015	0.544429	0.608903	0	0
25.22	2.7266	1.51627	-1.03288	0.620232	-0.0863986	0.946363	0.0562821	-0.0195158	-0.172177	0.311281	-0.410265	0	0	-0.0496856	-0.0320975	0.0383852	0.108425	-0.423995	0	0	-0.246806	0.0897924	-0.260762	0.428829	-0.17488	0.532692	0.112291	1.50977	0	0	0.171799	-0.447866	0.855572	0.543593	0.60344	0	0
25.23	2.78556	1.51249	-1.09271	0.620375	-0.0857739	0.946558	0.0497755	-0.0209882	-0.173425	0.310579	-0.409903	0	0	-0.0583053	-0.0312086	0.039065	0.103834	-0.424771	0	0	-0.248327	0.0878235	-0.260999	0.429429	-0.174358	0.54314	0.111339	1.49957	0	0	0.172269	-0.447983	0.86033	0.542278	0.598828	0	0
25.24	2.81609	1.50762	-1.12471	0.620569	-0.085295	0.946879	0.0426937	-0.0196208	-0.171428	0.308155	-0.410041	0	0	-0.0665615	-0.0319392	0.0386131	0.100317	-0.425253	0	0	-0.251374	0.0875194	-0.259693	0.429912	-0.174761	0.554513	0.111646	1.48873	0	0	0.173784	-0.447175	0.864802	0.540236	0.594782	0	0
25.25	2.84007	1.50279	-1.15009	0.620752	-0.084823	0.947139	0.0362424	-0.0183021	-0.170051	0.307063	-0.410054	0	0	-0.0743205	-0.0326412	0.0372925	0.0973864	-0.42533	0	0	-0.254413	0.0873946	-0.258389	0.430179	-0.175366	0.565959	0.112345	1.47677	0	0	0.175058	-0.446081	0.86861	0.538109	0.590901	0	0
25.26	2.85608	1.49809	-1.16738	0.620883	-0.0843976	0.947415	0.0289546	-0.0162559	-0.167214	0.303369	-0.410537	0	0	-0.0812449	-0.033454	0.0351118	0.0952767	-0.425007	0	0	-0.257532	0.0877352	-0.256846	0.430199	-0.176377	0.577317	0.113625	1.46389	0	0	0.176564	-0.444228	0.8716	0.535285	0.587447	0	0
25.27	2.86845	1.49336	-1.18059	0.620973	-0.0840045	0.947714	0.0210575	-0.0140533	-0.164725	0.2986	-0.41135	0	0	-0.0874785	-0.034432	0.0321187	0.0942617	-0.424388	0	0	-0.26064	0.0882855	-0.255345	0.429971	-0.17761	0.588546	0.115104	1.45018	0	0	0.178394	-0.442104	0.874463	0.532	0.585387	0	0
25.28	2.87517	1.48976	-1.18779	0.621029	-0.0836029	0.947918	0.0145951	-0.0123826	-0.163309	0.294175	-0.412275	0	0	-0.0918148	-0.0353513	0.029136	0.0942087	-0.423702	0	0	-0.262327	0.088777	-0.254479	0.429604	-0.178623	0.597388	0.116261	1.43919	0	0	0.179653	-0.439914	0.876458	0.528687	0.584942	0	0
25.29	2.87926	1.48693	-1.19208	0.62107	-0.0831774	0.948058	0.00905227	-0.0111667	-0.162948	0.289838	-0.413356	0	0	-0.0947881	-0.0362346	0.0261529	0.0950891	-0.422865	0	0	-0.263136	0.0891051	-0.254004	0.428978	-0.179714	0.606611	0.1177	1.42829	0	0	0.180521	-0.437865	0.877867	0.525434	0.585561	0	0
